# xmcd
#
# Track frame offsets:
#	150
#	17764
#	37715
#	51021
#	63001
#	77004
#	95161
#	112721
#	134906
#	156662
#	175244
#	187553
#	201206
#	223149
#	239756
#	258235
#	273398
#	293955
#
# Disc length: 4167 seconds
#
# Revision: 0
# Processed by: cddbd v1.4PL0 Copyright (c) Steve Scherf et al.
# Submitted via: dBpowerAMP V4.0
#
DISCID=03104512
DTITLE=Jose Feliciano - The Very Best Of
DYEAR=2000
DGENRE=Blues
TTITLE0=The Last Time
TTITLE1=Right Here Waiting
TTITLE2=La Bamba
TTITLE3=Rain
TTITLE4=Light My Fire
TTITLE5=California Dreamin'
TTITLE6=Daniel
TTITLE7=Affirmation
TTITLE8=Stay With Me
TTITLE9=You Send Me
TTITLE10=Mule Skinner Blues
TTITLE11=Chico and the Man
TTITLE12=Jealous Guy
TTITLE13=Angela
TTITLE14=Y Volvere
TTITLE15=In My Life
TTITLE16=Hi- Heel Sneekers
TTITLE17=Che Sera Sera
EXTD=Jose Feliciano, The Very Best Of,
EXTT0=
EXTT1=
EXTT2=
EXTT3=
EXTT4=
EXTT5=
EXTT6=
EXTT7=
EXTT8=
EXTT9=
EXTT10=
EXTT11=
EXTT12=
EXTT13=
EXTT14=
EXTT15=
EXTT16=
EXTT17=
PLAYORDER=
